<svg width="37" height="33" viewBox="0 0 37 33" fill="none" xmlns="http://www.w3.org/2000/svg">
<g filter="url(#filter0_d_250_7056)">
<path d="M11.25 4.875L12.5 7.875C12.7188 8.375 12.5938 8.96875 12.1563 9.3125L10.625 10.5938C11 11.375 11.4688 12.125 12.0313 12.7812L22.9063 4.28125C23.2188 4 23.6875 4.0625 23.9375 4.40625C24.2188 4.71875 24.1563 5.1875 23.8125 5.4375L5.31254 19.9375C5.00004 20.2188 4.53129 20.1562 4.28129 19.8125C4.00004 19.5 4.06254 19.0312 4.40629 18.7812L9.25004 14.9688C7.28129 12.5312 6.12504 9.46875 6.12504 6.09375C6.12504 5.53125 6.50004 5.0625 7.03129 4.90625L9.78129 4.15625C10.375 4 11.0313 4.28125 11.25 4.875ZM14.2813 14.8438C14.7188 15.125 15.1563 15.375 15.625 15.5938L16.9063 14.0625C17.25 13.625 17.8438 13.5 18.3438 13.7188L21.3438 14.9688C21.9375 15.1875 22.2188 15.8438 22.0625 16.4375L21.3125 19.1875C21.1563 19.7188 20.6875 20.0938 20.125 20.0938C16.8438 20.0938 13.8125 18.9688 11.4375 17.0938L14.2813 14.8438Z" fill="#EB5757"/>
</g>
<defs>
<filter id="filter0_d_250_7056" x="0" y="0" width="36.2188" height="32.2188" filterUnits="userSpaceOnUse" color-interpolation-filters="sRGB">
<feFlood flood-opacity="0" result="BackgroundImageFix"/>
<feColorMatrix in="SourceAlpha" type="matrix" values="0 0 0 0 0 0 0 0 0 0 0 0 0 0 0 0 0 0 127 0" result="hardAlpha"/>
<feOffset dx="4" dy="4"/>
<feGaussianBlur stdDeviation="4"/>
<feComposite in2="hardAlpha" operator="out"/>
<feColorMatrix type="matrix" values="0 0 0 0 0.796078 0 0 0 0 0.12549 0 0 0 0 0.176471 0 0 0 0.25 0"/>
<feBlend mode="normal" in2="BackgroundImageFix" result="effect1_dropShadow_250_7056"/>
<feBlend mode="normal" in="SourceGraphic" in2="effect1_dropShadow_250_7056" result="shape"/>
</filter>
</defs>
</svg>
