<svg width="33" height="33" viewBox="0 0 33 33" fill="none" xmlns="http://www.w3.org/2000/svg">
<g filter="url(#filter0_d_250_7064)">
<path d="M12.75 4.09375C16.75 4.09375 20 7.34375 20 11.3438C20 11.7812 19.6563 12.0938 19.25 12.0938C18.8125 12.0938 18.5 11.7812 18.5 11.3438C18.5 8.1875 15.9063 5.59375 12.75 5.59375C12.3125 5.59375 12 5.28125 12 4.84375C12 4.4375 12.3125 4.09375 12.75 4.09375ZM13 10.0938C13.5313 10.0938 14 10.5625 14 11.0938C14 11.6562 13.5313 12.0938 13 12.0938C12.4375 12.0938 12 11.6562 12 11.0938C12 10.5625 12.4375 10.0938 13 10.0938ZM12 7.84375C12 7.4375 12.3125 7.09375 12.75 7.09375C15.0938 7.09375 17 9 17 11.3438C17 11.7812 16.6563 12.0938 16.25 12.0938C15.8125 12.0938 15.5 11.7812 15.5 11.3438C15.5 9.84375 14.25 8.59375 12.75 8.59375C12.3125 8.59375 12 8.28125 12 7.84375ZM7.65629 4.15625C8.25004 4 8.90629 4.28125 9.12504 4.875L10.375 7.875C10.5938 8.375 10.4688 8.96875 10.0313 9.3125L8.50004 10.5938C9.53129 12.7812 11.3125 14.5625 13.5 15.5938L14.7813 14.0625C15.125 13.625 15.7188 13.5 16.2188 13.7188L19.2188 14.9688C19.7813 15.1875 20.0938 15.8438 19.9375 16.4375L19.1875 19.1875C19.0313 19.7188 18.5625 20.0938 18 20.0938C10.25 20.0938 4.00004 13.8438 4.00004 6.09375C4.00004 5.53125 4.37504 5.0625 4.90629 4.90625L7.65629 4.15625Z" fill="#48DD7E"/>
</g>
<defs>
<filter id="filter0_d_250_7064" x="0" y="0" width="32.0938" height="32.0938" filterUnits="userSpaceOnUse" color-interpolation-filters="sRGB">
<feFlood flood-opacity="0" result="BackgroundImageFix"/>
<feColorMatrix in="SourceAlpha" type="matrix" values="0 0 0 0 0 0 0 0 0 0 0 0 0 0 0 0 0 0 127 0" result="hardAlpha"/>
<feOffset dx="4" dy="4"/>
<feGaussianBlur stdDeviation="4"/>
<feComposite in2="hardAlpha" operator="out"/>
<feColorMatrix type="matrix" values="0 0 0 0 0.921569 0 0 0 0 0.341176 0 0 0 0 0.341176 0 0 0 0.25 0"/>
<feBlend mode="normal" in2="BackgroundImageFix" result="effect1_dropShadow_250_7064"/>
<feBlend mode="normal" in="SourceGraphic" in2="effect1_dropShadow_250_7064" result="shape"/>
</filter>
</defs>
</svg>
