<svg width="25" height="30" viewBox="0 0 25 30" fill="none" xmlns="http://www.w3.org/2000/svg">
<path d="M23.9531 21.1406L22.8281 25.875C22.6875 26.5781 22.125 27.0469 21.4219 27.0469C9.60938 27 0 17.3906 0 5.57812C0 4.875 0.421875 4.3125 1.125 4.17188L5.85938 3.04688C6.51562 2.90625 7.21875 3.28125 7.5 3.89062L9.70312 9C9.9375 9.60938 9.79688 10.3125 9.28125 10.6875L6.75 12.75C8.34375 15.9844 10.9688 18.6094 14.25 20.2031L16.3125 17.6719C16.6875 17.2031 17.3906 17.0156 18 17.25L23.1094 19.4531C23.7188 19.7812 24.0938 20.4844 23.9531 21.1406Z" fill="#0887FC"/>
</svg>
