<svg width="16" height="16" viewBox="0 0 16 16" fill="none" xmlns="http://www.w3.org/2000/svg">
<path fill-rule="evenodd" clip-rule="evenodd" d="M1.30725 7.8529C1.30725 4.40982 4.05889 1.30713 7.85627 1.30713C11.5687 1.30713 14.3791 4.35091 14.3791 7.83326C14.3791 11.872 11.085 14.379 7.8432 14.379C6.7713 14.379 5.58176 14.091 4.62751 13.5281C4.29418 13.3252 4.01313 13.1746 3.65366 13.2924L2.33339 13.6852C2.00006 13.7899 1.69941 13.5281 1.79745 13.1746L2.23536 11.7084C2.30725 11.5054 2.29418 11.2894 2.1896 11.1192C1.62751 10.085 1.30725 8.95258 1.30725 7.8529ZM4.81707 8.69721C4.35955 8.69721 3.98047 8.31755 3.98047 7.85935C3.98047 7.3946 4.35301 7.02149 4.81707 7.02149C5.28112 7.02149 5.65367 7.3946 5.65367 7.85935C5.65367 8.31755 5.28112 8.69066 4.81707 8.69721ZM6.99382 7.85306C6.99382 8.31781 7.36637 8.69092 7.83043 8.69747C8.29448 8.69747 8.66703 8.31781 8.66703 7.85961C8.66703 7.39486 8.29448 7.02175 7.83043 7.02175C7.37291 7.0152 6.99382 7.39486 6.99382 7.85306ZM10.0069 7.85953C10.0069 8.31773 10.3795 8.69739 10.8435 8.69739C11.3076 8.69739 11.6801 8.31773 11.6801 7.85953C11.6801 7.39478 11.3076 7.02167 10.8435 7.02167C10.3795 7.02167 10.0069 7.39478 10.0069 7.85953Z" fill="#0887FC"/>
</svg>
