<svg width="20" height="20" viewBox="0 0 20 20" fill="none" xmlns="http://www.w3.org/2000/svg">
<g clip-path="url(#clip0_250_5481)">
<path d="M9.88426 0.138672C12.6157 0.138672 14.946 1.10318 16.875 3.03219C18.804 4.9612 19.7685 7.28373 19.7685 9.99978C19.7685 12.7158 18.804 15.0384 16.875 16.9674C14.946 18.8964 12.6157 19.8609 9.88426 19.8609C7.15278 19.8609 4.82253 18.8964 2.89352 16.9674C0.964506 15.0384 0 12.7158 0 9.99978C0 7.28373 0.964506 4.9612 2.89352 3.03219C4.82253 1.10318 7.15278 0.138672 9.88426 0.138672ZM10.8796 16.8979V14.9535H8.88889V16.8979H10.8796ZM12.9167 9.25904C13.5339 8.64176 13.8426 7.90102 13.8426 7.03682C13.8426 5.95657 13.4568 5.03065 12.6852 4.25904C11.9136 3.48744 10.9799 3.10163 9.88426 3.10163C8.78858 3.10163 7.85494 3.48744 7.08333 4.25904C6.31173 5.03065 5.92593 5.95657 5.92593 7.03682H7.91667C7.91667 6.48126 8.10957 6.01059 8.49537 5.62478C8.88117 5.23898 9.34414 5.04608 9.88426 5.04608C10.4244 5.04608 10.8873 5.23898 11.2731 5.62478C11.6589 6.01059 11.8519 6.48126 11.8519 7.03682C11.8519 7.59238 11.6512 8.05534 11.25 8.42571L10.0463 9.67571C9.27469 10.4473 8.88889 11.3732 8.88889 12.4535V12.9627H10.8796C10.8796 12.2837 10.9645 11.7513 11.1343 11.3655C11.304 10.9797 11.6049 10.5862 12.037 10.185L12.9167 9.25904Z" fill="#0887FC"/>
</g>
<defs>
<clipPath id="clip0_250_5481">
<rect width="20" height="20" fill="white"/>
</clipPath>
</defs>
</svg>
