<svg width="19" height="20" viewBox="0 0 19 20" fill="none" xmlns="http://www.w3.org/2000/svg">
<path d="M13.3723 19.1054H0.791658C0.353602 19.1054 0 18.7518 0 18.3137V0.791658C0 0.353602 0.353611 0 0.791658 0H13.3723C13.8103 0 14.1639 0.353611 14.1639 0.791658C14.1639 1.22971 13.8103 1.58332 13.3723 1.58332H1.58341V17.5223H13.3723C13.8103 17.5223 14.1639 17.8759 14.1639 18.314C14.1639 18.752 13.8103 19.1054 13.3723 19.1054Z" fill="white"/>
<path d="M18.2083 10.3445H6.45633C6.01828 10.3445 5.66467 9.99093 5.66467 9.55289C5.66467 9.11484 6.01829 8.76123 6.45633 8.76123H18.2083C18.6463 8.76123 18.9999 9.11484 18.9999 9.55289C18.9999 9.99093 18.6463 10.3445 18.2083 10.3445Z" fill="white"/>
<path d="M13.4776 15.0542C13.2735 15.0542 13.0712 14.9768 12.9164 14.8202C12.6085 14.5106 12.6085 14.0092 12.9182 13.7013L17.0858 9.55304L12.9182 5.40473C12.6085 5.09687 12.6068 4.59547 12.9164 4.28584C13.2243 3.97621 13.7257 3.97445 14.0353 4.28408L18.766 8.99359C18.9155 9.14137 19 9.34368 19 9.55479C19 9.76591 18.9155 9.96646 18.766 10.116L14.0353 14.8255C13.8805 14.9786 13.6782 15.056 13.4776 15.056V15.0542Z" fill="white"/>
</svg>
