<svg width="20" height="20" viewBox="0 0 20 20" fill="none" xmlns="http://www.w3.org/2000/svg">
<path fill-rule="evenodd" clip-rule="evenodd" d="M13 15.835L11.144 10.268L16.712 4.69901L13 15.835ZM15.298 3.28501L9.73 8.85301L4.162 6.99701L15.298 3.28501ZM19.99 0.945C19.985 0.852 19.968 0.762 19.937 0.675C19.927 0.644 19.916 0.614 19.902 0.584C19.854 0.477 19.793 0.376 19.707 0.29C19.621 0.204 19.52 0.143 19.412 0.095C19.383 0.081 19.354 0.07 19.323 0.06C19.234 0.029 19.143 0.011 19.048 0.006C19.026 0.005 19.006 0 18.983 0C18.883 0.002 18.782 0.016 18.684 0.048L0.684 6.048C0.275 6.185 0 6.566 0 6.997C0 7.428 0.275 7.81 0.684 7.946L9.209 10.788L12.052 19.314C12.188 19.722 12.569 19.997 13 19.997C13.431 19.997 13.812 19.722 13.948 19.314L19.948 1.314C19.98 1.215 19.995 1.115 19.996 1.015C19.997 0.991 19.991 0.969 19.99 0.945Z" fill="white"/>
</svg>
