<svg width="20" height="21" viewBox="0 0 20 21" fill="none" xmlns="http://www.w3.org/2000/svg">
<path d="M10 6.84783C9.29358 6.84783 8.60302 7.06202 8.01565 7.46333C7.42828 7.86463 6.97048 8.43503 6.70014 9.10237C6.42981 9.76972 6.35908 10.5041 6.49689 11.2125C6.63471 11.921 6.97488 12.5717 7.4744 13.0825C7.97392 13.5932 8.61034 13.9411 9.30319 14.082C9.99604 14.2229 10.7142 14.1506 11.3668 13.8742C12.0195 13.5977 12.5773 13.1296 12.9698 12.529C13.3623 11.9284 13.5717 11.2223 13.5717 10.5C13.5689 9.53227 13.1917 8.60501 12.5225 7.92072C11.8533 7.23643 10.9464 6.85072 10 6.84783ZM17.7114 10.5C17.7095 10.8413 17.6851 11.182 17.6382 11.5199L19.812 13.2601C19.9067 13.3401 19.9705 13.4518 19.992 13.5754C20.0135 13.699 19.9913 13.8264 19.9294 13.9349L17.873 17.5651C17.8105 17.6726 17.7129 17.7541 17.5974 17.7952C17.482 17.8364 17.356 17.8346 17.2417 17.7902L14.6857 16.7402C14.1534 17.1593 13.571 17.5071 12.9525 17.7751L12.5703 20.5499C12.5489 20.6742 12.486 20.787 12.3923 20.8691C12.2985 20.9512 12.1798 20.9975 12.0564 21H7.94357C7.82242 20.9976 7.70565 20.9533 7.61232 20.8742C7.51899 20.7952 7.45461 20.6862 7.42969 20.5649L7.04751 17.7902C6.42731 17.5252 5.84444 17.1769 5.31433 16.7543L2.7583 17.8043C2.64404 17.8488 2.51811 17.8507 2.40265 17.8096C2.28718 17.7685 2.18958 17.6871 2.127 17.5797L0.0705681 13.9499C0.00866889 13.8415 -0.0135068 13.7141 0.00800384 13.5905C0.0295145 13.4669 0.0933097 13.3551 0.187989 13.2752L2.36184 11.5349C2.31547 11.1919 2.29101 10.8462 2.28862 10.5C2.29048 10.1587 2.31494 9.81801 2.36184 9.48013L0.187989 7.73987C0.0933097 7.65993 0.0295145 7.54817 0.00800384 7.42457C-0.0135068 7.30096 0.00866889 7.17356 0.0705681 7.06513L2.127 3.43487C2.18951 3.3274 2.28708 3.24592 2.40255 3.20475C2.51803 3.16359 2.64399 3.16537 2.7583 3.2098L5.31433 4.2598C5.84657 3.84072 6.42902 3.49293 7.04751 3.22487L7.42969 0.45013C7.45108 0.325842 7.51402 0.213006 7.60774 0.130905C7.70147 0.0488038 7.82018 0.00253312 7.94357 0H12.0564C12.1776 0.00241113 12.2943 0.0467438 12.3877 0.125761C12.481 0.204778 12.5454 0.313813 12.5703 0.435065L12.9525 3.2098C13.5735 3.47457 14.1571 3.82293 14.6879 4.24565L17.2417 3.19565C17.356 3.15118 17.4819 3.14932 17.5974 3.19041C17.7128 3.23149 17.8104 3.31287 17.873 3.42026L19.9294 7.05052C19.9913 7.15895 20.0135 7.28635 19.992 7.40996C19.9705 7.53356 19.9067 7.64532 19.812 7.72526L17.6382 9.46552C17.6845 9.80836 17.709 10.1539 17.7114 10.5Z" fill="#0887FC"/>
</svg>
