<svg width="13" height="13" viewBox="0 0 13 13" fill="none" xmlns="http://www.w3.org/2000/svg">
<path d="M8.4375 3.53906L11.7891 4.03125C12.0703 4.07812 12.3047 4.26562 12.3984 4.54688C12.4922 4.80469 12.4219 5.10938 12.2109 5.29688L9.77344 7.71094L10.3594 11.1328C10.4062 11.4141 10.2891 11.6953 10.0547 11.8594C9.82031 12.0469 9.51562 12.0469 9.25781 11.9297L6.25781 10.3125L3.23438 11.9297C3 12.0469 2.67188 12.0469 2.46094 11.8594C2.22656 11.6953 2.10938 11.4141 2.15625 11.1328L2.71875 7.71094L0.28125 5.29688C0.0703125 5.10938 0 4.80469 0.09375 4.54688C0.1875 4.26562 0.421875 4.07812 0.703125 4.03125L4.07812 3.53906L5.57812 0.421875C5.69531 0.164062 5.95312 0 6.25781 0C6.53906 0 6.79688 0.164062 6.91406 0.421875L8.4375 3.53906Z" fill="#F2C94C"/>
</svg>
